{
	"asset":{
		"generator":"Khronos glTF Blender I/O v3.5.30",
		"version":"2.0"
	},
	"scene":0,
	"scenes":[
		{ "name":"Base", "nodes":[ 6 ] },
		{ "name":"Arm1", "nodes":[ 4 ] },
		{ "name":"Arm2", "nodes":[ 3 ] },
		{ "name":"Arm3", "nodes":[ 2 ] },
		{ "name":"Arm4", "nodes":[ 5 ] },
		{ "name":"Arm5", "nodes":[ 0 ] },
		{ "name":"Arm6", "nodes":[ 1 ] }
	],
	"nodes":[
		{
			"mesh":0,
			"name":"UR5_Arm5"
		},
		{
			"mesh":1,
			"name":"UR5_Arm6"
		},
		{
			"mesh":2,
			"name":"UR5_Arm3"
		},
		{
			"mesh":3,
			"name":"UR5_Arm2"
		},
		{
			"mesh":4,
			"name":"UR5_Arm1"
		},
		{
			"mesh":5,
			"name":"UR5_Arm4"
		},
		{
			"mesh":6,
			"name":"UR5_Base"
		}
	],
	"meshes":[
		{
			"name":"UR5_Arm5",
			"primitives":[
				{
					"attributes":{
						"COLOR_0":0,
						"POSITION":1,
						"TEXCOORD_0":2,
						"NORMAL":3
					},
					"indices":4
				}
			]
		},
		{
			"name":"UR5_Arm6",
			"primitives":[
				{
					"attributes":{
						"COLOR_0":5,
						"POSITION":6,
						"TEXCOORD_0":7,
						"NORMAL":8
					},
					"indices":9
				}
			]
		},
		{
			"name":"UR5_Arm3",
			"primitives":[
				{
					"attributes":{
						"COLOR_0":10,
						"POSITION":11,
						"TEXCOORD_0":12,
						"NORMAL":13
					},
					"indices":14
				}
			]
		},
		{
			"name":"UR5_Arm2",
			"primitives":[
				{
					"attributes":{
						"COLOR_0":15,
						"POSITION":16,
						"TEXCOORD_0":17,
						"NORMAL":18
					},
					"indices":19
				}
			]
		},
		{
			"name":"UR5_Arm1",
			"primitives":[
				{
					"attributes":{
						"COLOR_0":20,
						"POSITION":21,
						"TEXCOORD_0":22,
						"NORMAL":23
					},
					"indices":24
				}
			]
		},
		{
			"name":"UR5_Arm4",
			"primitives":[
				{
					"attributes":{
						"COLOR_0":25,
						"POSITION":26,
						"TEXCOORD_0":27,
						"NORMAL":28
					},
					"indices":29
				}
			]
		},
		{
			"name":"UR5_Base",
			"primitives":[
				{
					"attributes":{
						"COLOR_0":30,
						"POSITION":31,
						"TEXCOORD_0":32,
						"NORMAL":33
					},
					"indices":34
				}
			]
		}
	],
	"accessors":[
		{
			"bufferView":0,
			"componentType":5126,
			"count":39197,
			"type":"VEC4"
		},
		{
			"bufferView":1,
			"componentType":5126,
			"count":39197,
			"max":[
				0.0393499992787838,
				0.048500001430511475,
				0.0393357016146183
			],
			"min":[
				-0.0393499992787838,
				-0.05803060159087181,
				-0.04625000059604645
			],
			"type":"VEC3"
		},
		{
			"bufferView":2,
			"componentType":5126,
			"count":39197,
			"type":"VEC2"
		},
		{
			"bufferView":3,
			"componentType":5126,
			"count":39197,
			"type":"VEC3"
		},
		{
			"bufferView":4,
			"componentType":5123,
			"count":114669,
			"type":"SCALAR"
		},
		{
			"bufferView":5,
			"componentType":5126,
			"count":2117,
			"type":"VEC4"
		},
		{
			"bufferView":6,
			"componentType":5126,
			"count":2117,
			"max":[
				0.03748060017824173,
				0.03749990090727806,
				-4.582820167797763e-08
			],
			"min":[
				-0.03748060017824173,
				-0.03749990090727806,
				-0.032999999821186066
			],
			"type":"VEC3"
		},
		{
			"bufferView":7,
			"componentType":5126,
			"count":2117,
			"type":"VEC2"
		},
		{
			"bufferView":8,
			"componentType":5126,
			"count":2117,
			"type":"VEC3"
		},
		{
			"bufferView":9,
			"componentType":5123,
			"count":5448,
			"type":"SCALAR"
		},
		{
			"bufferView":10,
			"componentType":5126,
			"count":51118,
			"type":"VEC4"
		},
		{
			"bufferView":11,
			"componentType":5126,
			"count":51118,
			"max":[
				0.43160000443458557,
				0.057999998331069946,
				0.05803050100803375
			],
			"min":[
				-0.05796470120549202,
				-0.05794690176844597,
				-0.052549999207258224
			],
			"type":"VEC3"
		},
		{
			"bufferView":12,
			"componentType":5126,
			"count":51118,
			"type":"VEC2"
		},
		{
			"bufferView":13,
			"componentType":5126,
			"count":51118,
			"type":"VEC3"
		},
		{
			"bufferView":14,
			"componentType":5123,
			"count":130191,
			"type":"SCALAR"
		},
		{
			"bufferView":15,
			"componentType":5126,
			"count":92711,
			"type":"VEC4"
		},
		{
			"bufferView":16,
			"componentType":5126,
			"count":92711,
			"max":[
				0.48510000109672546,
				0.060100000351667404,
				0.07347720116376877
			],
			"min":[
				-0.060100000351667404,
				-0.060100000351667404,
				-0.06639999896287918
			],
			"type":"VEC3"
		},
		{
			"bufferView":17,
			"componentType":5126,
			"count":92711,
			"type":"VEC2"
		},
		{
			"bufferView":18,
			"componentType":5126,
			"count":92711,
			"type":"VEC3"
		},
		{
			"bufferView":19,
			"componentType":5125,
			"count":236400,
			"type":"SCALAR"
		},
		{
			"bufferView":20,
			"componentType":5126,
			"count":35886,
			"type":"VEC4"
		},
		{
			"bufferView":21,
			"componentType":5126,
			"count":35886,
			"max":[
				0.060062799602746964,
				0.06780000030994415,
				0.07347720116376877
			],
			"min":[
				-0.060100000351667404,
				-0.060100000351667404,
				-0.06639999896287918
			],
			"type":"VEC3"
		},
		{
			"bufferView":22,
			"componentType":5126,
			"count":35886,
			"type":"VEC2"
		},
		{
			"bufferView":23,
			"componentType":5126,
			"count":35886,
			"type":"VEC3"
		},
		{
			"bufferView":24,
			"componentType":5123,
			"count":99063,
			"type":"SCALAR"
		},
		{
			"bufferView":25,
			"componentType":5126,
			"count":39197,
			"type":"VEC4"
		},
		{
			"bufferView":26,
			"componentType":5126,
			"count":39197,
			"max":[
				0.0393499992787838,
				0.048500001430511475,
				0.0393357016146183
			],
			"min":[
				-0.0393499992787838,
				-0.05803050100803375,
				-0.04625000059604645
			],
			"type":"VEC3"
		},
		{
			"bufferView":27,
			"componentType":5126,
			"count":39197,
			"type":"VEC2"
		},
		{
			"bufferView":28,
			"componentType":5126,
			"count":39197,
			"type":"VEC3"
		},
		{
			"bufferView":29,
			"componentType":5123,
			"count":114597,
			"type":"SCALAR"
		},
		{
			"bufferView":30,
			"componentType":5126,
			"count":2508,
			"type":"VEC4"
		},
		{
			"bufferView":31,
			"componentType":5126,
			"count":2508,
			"max":[
				0.07450000196695328,
				0.07445459812879562,
				0.02280000038444996
			],
			"min":[
				-0.07450000196695328,
				-0.07445459812879562,
				9.315980200993728e-18
			],
			"type":"VEC3"
		},
		{
			"bufferView":32,
			"componentType":5126,
			"count":2508,
			"type":"VEC2"
		},
		{
			"bufferView":33,
			"componentType":5126,
			"count":2508,
			"type":"VEC3"
		},
		{
			"bufferView":34,
			"componentType":5123,
			"count":6456,
			"type":"SCALAR"
		}
	],
	"bufferViews":[
		{
			"buffer":0,
			"byteLength":627152,
			"byteOffset":0,
			"target":34962
		},
		{
			"buffer":0,
			"byteLength":470364,
			"byteOffset":627152,
			"target":34962
		},
		{
			"buffer":0,
			"byteLength":313576,
			"byteOffset":1097516,
			"target":34962
		},
		{
			"buffer":0,
			"byteLength":470364,
			"byteOffset":1411092,
			"target":34962
		},
		{
			"buffer":0,
			"byteLength":229338,
			"byteOffset":1881456,
			"target":34963
		},
		{
			"buffer":0,
			"byteLength":33872,
			"byteOffset":2110796,
			"target":34962
		},
		{
			"buffer":0,
			"byteLength":25404,
			"byteOffset":2144668,
			"target":34962
		},
		{
			"buffer":0,
			"byteLength":16936,
			"byteOffset":2170072,
			"target":34962
		},
		{
			"buffer":0,
			"byteLength":25404,
			"byteOffset":2187008,
			"target":34962
		},
		{
			"buffer":0,
			"byteLength":10896,
			"byteOffset":2212412,
			"target":34963
		},
		{
			"buffer":0,
			"byteLength":817888,
			"byteOffset":2223308,
			"target":34962
		},
		{
			"buffer":0,
			"byteLength":613416,
			"byteOffset":3041196,
			"target":34962
		},
		{
			"buffer":0,
			"byteLength":408944,
			"byteOffset":3654612,
			"target":34962
		},
		{
			"buffer":0,
			"byteLength":613416,
			"byteOffset":4063556,
			"target":34962
		},
		{
			"buffer":0,
			"byteLength":260382,
			"byteOffset":4676972,
			"target":34963
		},
		{
			"buffer":0,
			"byteLength":1483376,
			"byteOffset":4937356,
			"target":34962
		},
		{
			"buffer":0,
			"byteLength":1112532,
			"byteOffset":6420732,
			"target":34962
		},
		{
			"buffer":0,
			"byteLength":741688,
			"byteOffset":7533264,
			"target":34962
		},
		{
			"buffer":0,
			"byteLength":1112532,
			"byteOffset":8274952,
			"target":34962
		},
		{
			"buffer":0,
			"byteLength":945600,
			"byteOffset":9387484,
			"target":34963
		},
		{
			"buffer":0,
			"byteLength":574176,
			"byteOffset":10333084,
			"target":34962
		},
		{
			"buffer":0,
			"byteLength":430632,
			"byteOffset":10907260,
			"target":34962
		},
		{
			"buffer":0,
			"byteLength":287088,
			"byteOffset":11337892,
			"target":34962
		},
		{
			"buffer":0,
			"byteLength":430632,
			"byteOffset":11624980,
			"target":34962
		},
		{
			"buffer":0,
			"byteLength":198126,
			"byteOffset":12055612,
			"target":34963
		},
		{
			"buffer":0,
			"byteLength":627152,
			"byteOffset":12253740,
			"target":34962
		},
		{
			"buffer":0,
			"byteLength":470364,
			"byteOffset":12880892,
			"target":34962
		},
		{
			"buffer":0,
			"byteLength":313576,
			"byteOffset":13351256,
			"target":34962
		},
		{
			"buffer":0,
			"byteLength":470364,
			"byteOffset":13664832,
			"target":34962
		},
		{
			"buffer":0,
			"byteLength":229194,
			"byteOffset":14135196,
			"target":34963
		},
		{
			"buffer":0,
			"byteLength":40128,
			"byteOffset":14364392,
			"target":34962
		},
		{
			"buffer":0,
			"byteLength":30096,
			"byteOffset":14404520,
			"target":34962
		},
		{
			"buffer":0,
			"byteLength":20064,
			"byteOffset":14434616,
			"target":34962
		},
		{
			"buffer":0,
			"byteLength":30096,
			"byteOffset":14454680,
			"target":34962
		},
		{
			"buffer":0,
			"byteLength":12912,
			"byteOffset":14484776,
			"target":34963
		}
	],
	"buffers":[
		{
			"byteLength":14497688,
			"uri":"ur5.bin"
		}
	]
}
