{
	"asset":{
		"generator":"Khronos glTF Blender I/O v3.5.30",
		"version":"2.0"
	},
	"scene":0,
	"scenes":[
		{ "name":"main", "nodes":[ 0 ] },
		{ "name":"driving", "nodes":[ 1 ] },
		{ "name":"follower", "nodes":[ 2 ] },
		{ "name":"finger", "nodes":[ 3 ] }
	],
	"nodes":[
		{ "mesh":0, "name":"main" },
		{ "mesh":1, "name":"driving" },
		{ "mesh":2, "name":"follower" },
		{ "mesh":3, "name":"finger" }
	],
	"meshes":[
		{
			"name":"main",
			"primitives":[
				{
					"attributes":{
						"COLOR_0":0,
						"POSITION":1,
						"TEXCOORD_0":2,
						"NORMAL":3
					},
					"indices":4
				}
			]
		},
		{
			"name":"driving",
			"primitives":[
				{
					"attributes":{
						"COLOR_0":5,
						"POSITION":6,
						"TEXCOORD_0":7,
						"NORMAL":8
					},
					"indices":9
				}
			]
		},
		{
			"name":"follower",
			"primitives":[
				{
					"attributes":{
						"COLOR_0":10,
						"POSITION":11,
						"TEXCOORD_0":12,
						"NORMAL":13
					},
					"indices":14
				}
			]
		},
		{
			"name":"fingertip",
			"primitives":[
				{
					"attributes":{
						"COLOR_0":15,
						"POSITION":16,
						"TEXCOORD_0":17,
						"NORMAL":18
					},
					"indices":19
				}
			]
		}
	],
	"accessors":[
		{
			"bufferView":0,
			"componentType":5126,
			"count":18422,
			"type":"VEC4"
		},
		{
			"bufferView":1,
			"componentType":5126,
			"count":18422,
			"max":[
				0.06299400329589844,
				0.03749829903244972,
				0.10074099898338318
			],
			"min":[
				-0.06299400329589844,
				-0.03749829903244972,
				3.679869919892553e-08
			],
			"type":"VEC3"
		},
		{
			"bufferView":2,
			"componentType":5126,
			"count":18422,
			"type":"VEC2"
		},
		{
			"bufferView":3,
			"componentType":5126,
			"count":18422,
			"type":"VEC3"
		},
		{
			"bufferView":4,
			"componentType":5123,
			"count":57162,
			"type":"SCALAR"
		},
		{
			"bufferView":5,
			"componentType":5126,
			"count":11322,
			"type":"VEC4"
		},
		{
			"bufferView":6,
			"componentType":5126,
			"count":11322,
			"max":[
				0.06099399924278259,
				0.011994400061666965,
				0.029997700825333595
			],
			"min":[
				-0.011997600086033344,
				-0.01199449971318245,
				-0.029997700825333595
			],
			"type":"VEC3"
		},
		{
			"bufferView":7,
			"componentType":5126,
			"count":11322,
			"type":"VEC2"
		},
		{
			"bufferView":8,
			"componentType":5126,
			"count":11322,
			"type":"VEC3"
		},
		{
			"bufferView":9,
			"componentType":5123,
			"count":39252,
			"type":"SCALAR"
		},
		{
			"bufferView":10,
			"componentType":5126,
			"count":8070,
			"type":"VEC4"
		},
		{
			"bufferView":11,
			"componentType":5126,
			"count":8070,
			"max":[
				0.06099399924278259,
				0.005999989807605743,
				0.012597699649631977
			],
			"min":[
				-0.0059939902275800705,
				-0.006000009831041098,
				-0.012597699649631977
			],
			"type":"VEC3"
		},
		{
			"bufferView":12,
			"componentType":5126,
			"count":8070,
			"type":"VEC2"
		},
		{
			"bufferView":13,
			"componentType":5126,
			"count":8070,
			"type":"VEC3"
		},
		{
			"bufferView":14,
			"componentType":5123,
			"count":28812,
			"type":"SCALAR"
		},
		{
			"bufferView":15,
			"componentType":5126,
			"count":4428,
			"type":"VEC4"
		},
		{
			"bufferView":16,
			"componentType":5126,
			"count":4428,
			"max":[
				0.050476301461458206,
				0.010999999940395355,
				0.011500000022351742
			],
			"min":[
				-0.017983200028538704,
				-0.03899409994482994,
				-0.011500000022351742
			],
			"type":"VEC3"
		},
		{
			"bufferView":17,
			"componentType":5126,
			"count":4428,
			"type":"VEC2"
		},
		{
			"bufferView":18,
			"componentType":5126,
			"count":4428,
			"type":"VEC3"
		},
		{
			"bufferView":19,
			"componentType":5123,
			"count":14880,
			"type":"SCALAR"
		}
	],
	"bufferViews":[
		{
			"buffer":0,
			"byteLength":294752,
			"byteOffset":0,
			"target":34962
		},
		{
			"buffer":0,
			"byteLength":221064,
			"byteOffset":294752,
			"target":34962
		},
		{
			"buffer":0,
			"byteLength":147376,
			"byteOffset":515816,
			"target":34962
		},
		{
			"buffer":0,
			"byteLength":221064,
			"byteOffset":663192,
			"target":34962
		},
		{
			"buffer":0,
			"byteLength":114324,
			"byteOffset":884256,
			"target":34963
		},
		{
			"buffer":0,
			"byteLength":181152,
			"byteOffset":998580,
			"target":34962
		},
		{
			"buffer":0,
			"byteLength":135864,
			"byteOffset":1179732,
			"target":34962
		},
		{
			"buffer":0,
			"byteLength":90576,
			"byteOffset":1315596,
			"target":34962
		},
		{
			"buffer":0,
			"byteLength":135864,
			"byteOffset":1406172,
			"target":34962
		},
		{
			"buffer":0,
			"byteLength":78504,
			"byteOffset":1542036,
			"target":34963
		},
		{
			"buffer":0,
			"byteLength":129120,
			"byteOffset":1620540,
			"target":34962
		},
		{
			"buffer":0,
			"byteLength":96840,
			"byteOffset":1749660,
			"target":34962
		},
		{
			"buffer":0,
			"byteLength":64560,
			"byteOffset":1846500,
			"target":34962
		},
		{
			"buffer":0,
			"byteLength":96840,
			"byteOffset":1911060,
			"target":34962
		},
		{
			"buffer":0,
			"byteLength":57624,
			"byteOffset":2007900,
			"target":34963
		},
		{
			"buffer":0,
			"byteLength":70848,
			"byteOffset":2065524,
			"target":34962
		},
		{
			"buffer":0,
			"byteLength":53136,
			"byteOffset":2136372,
			"target":34962
		},
		{
			"buffer":0,
			"byteLength":35424,
			"byteOffset":2189508,
			"target":34962
		},
		{
			"buffer":0,
			"byteLength":53136,
			"byteOffset":2224932,
			"target":34962
		},
		{
			"buffer":0,
			"byteLength":29760,
			"byteOffset":2278068,
			"target":34963
		}
	],
	"buffers":[
		{
			"byteLength":2307828,
			"uri":"ctm2f110.bin"
		}
	]
}
